<svg width="800" height="600" viewBox="0 0 800 600" fill="none" xmlns="http://www.w3.org/2000/svg">
  <!-- Background gradient -->
  <rect width="800" height="600" fill="url(#paint0_linear)" />
  
  <!-- Mountains -->
  <path d="M0 450L100 350L200 400L300 300L400 380L500 280L600 350L700 280L800 350L800 600L0 600L0 450Z" fill="#3B82F6" fill-opacity="0.3" />
  <path d="M0 500L100 420L200 480L300 400L400 460L500 380L600 450L700 400L800 480L800 600L0 600L0 500Z" fill="#3B82F6" fill-opacity="0.6" />
  
  <!-- Sun -->
  <circle cx="600" cy="200" r="80" fill="#FCD34D" fill-opacity="0.7" />
  
  <!-- Camera -->
  <g transform="translate(300, 200) scale(0.8)">
    <!-- Camera body -->
    <rect x="100" y="100" width="200" height="140" rx="10" fill="#1E293B" />
    <rect x="120" y="80" width="160" height="30" rx="5" fill="#1E293B" />
    
    <!-- Lens -->
    <circle cx="200" cy="170" r="60" fill="#334155" />
    <circle cx="200" cy="170" r="45" fill="#1E293B" />
    <circle cx="200" cy="170" r="30" fill="#0F172A" />
    <circle cx="220" cy="150" r="10" fill="white" fill-opacity="0.2" />
    
    <!-- Flash -->
    <rect x="250" y="110" width="30" height="15" rx="2" fill="#CBD5E1" />
    
    <!-- Button -->
    <circle cx="280" cy="140" r="8" fill="#EF4444" />
  </g>
  
  <!-- Small photos -->
  <rect x="140" y="400" width="100" height="80" rx="5" transform="rotate(-5 140 400)" fill="white" />
  <rect x="150" y="410" width="80" height="60" rx="3" transform="rotate(-5 150 410)" fill="#60A5FA" />
  
  <rect x="480" y="380" width="100" height="80" rx="5" transform="rotate(8 480 380)" fill="white" />
  <rect x="490" y="390" width="80" height="60" rx="3" transform="rotate(8 490 390)" fill="#34D399" />
  
  <rect x="320" y="420" width="100" height="80" rx="5" transform="rotate(-12 320 420)" fill="white" />
  <rect x="330" y="430" width="80" height="60" rx="3" transform="rotate(-12 330 430)" fill="#F472B6" />
  
  <!-- Definitions -->
  <defs>
    <linearGradient id="paint0_linear" x1="400" y1="0" x2="400" y2="600" gradientUnits="userSpaceOnUse">
      <stop stop-color="#DBEAFE" />
      <stop offset="1" stop-color="#EFF6FF" />
    </linearGradient>
  </defs>
</svg> 